<svg width="26" height="26" viewBox="0 0 26 26" fill="none" xmlns="http://www.w3.org/2000/svg">
<path d="M22.3073 23.8333H3.69364C3.5857 23.8333 3.48249 23.7929 3.40843 23.7214C3.33436 23.6499 3.29497 23.5538 3.2997 23.4549L4.18606 6.39236C4.1963 6.19953 4.36885 6.04858 4.58 6.04858H21.4209C21.6313 6.04858 21.8046 6.19953 21.8149 6.39236L22.7012 23.4549C22.7059 23.5538 22.6673 23.6499 22.5925 23.7214C22.5176 23.7929 22.4144 23.8333 22.3073 23.8333ZM4.10649 23.1111H21.8936L21.0451 6.77081H4.95503L4.10649 23.1111Z" fill="#1E1E1E"/>
<path d="M17.2586 8.21528C17.0411 8.21528 16.8646 8.0535 16.8646 7.85417V4.26472C16.8646 2.31183 15.1313 0.722222 13.0001 0.722222C10.8689 0.722222 9.13554 2.31183 9.13554 4.26472V7.85417C9.13554 8.0535 8.95905 8.21528 8.7416 8.21528C8.52414 8.21528 8.34766 8.0535 8.34766 7.85417V4.26472C8.34766 1.91317 10.4347 0 13.0001 0C15.5654 0 17.6525 1.91317 17.6525 4.26472V7.85417C17.6525 8.0535 17.4768 8.21528 17.2586 8.21528Z" fill="#1E1E1E"/>
</svg>
