<svg width="50" height="30" viewBox="0 0 50 30" fill="none" xmlns="http://www.w3.org/2000/svg">
<path d="M48.4443 6.87511C48.4376 6.81637 48.4216 6.759 48.3968 6.705L48.3938 6.64966C48.3597 6.58463 48.3131 6.52644 48.2565 6.47815C48.2016 6.42778 48.1362 6.38924 48.0645 6.36504L48.007 6.3681C47.9478 6.35305 47.8872 6.34388 47.826 6.34073L47.7876 6.34277C47.7257 6.33738 47.6632 6.3407 47.6022 6.35263L36.3394 10.497C33.6446 11.4978 31.3241 13.2578 29.6826 15.5459C28.041 17.8341 27.1552 20.5433 27.1413 23.3181L27.1347 28.3745C27.1281 28.4341 27.1474 28.6143 27.1474 28.6143C27.1799 28.6943 27.2322 28.7656 27.2996 28.822C27.3614 28.8742 27.4332 28.9143 27.511 28.9402C27.5896 28.9677 27.673 28.98 27.7566 28.9765L27.795 28.9745L33.0173 28.4316C35.8856 28.1216 38.5932 26.9855 40.785 25.1722C42.9768 23.359 44.5505 20.9533 45.2999 18.2705L48.3848 7.08176C48.3914 7.02217 48.3882 6.96199 48.3753 6.90345L48.4443 6.87511ZM36.7916 11.6445L45.5964 8.42007L35.0938 19.621L35.6131 12.1511C35.9969 11.9632 36.3902 11.7941 36.7916 11.6445ZM34.293 12.8872L33.7046 21.1069L28.4147 26.7649L28.4166 23.3057C28.4307 21.2415 28.9745 19.2105 29.9996 17.3931C31.0248 15.5756 32.4995 14.0278 34.293 12.8872ZM32.9269 27.2156L29.3809 27.5706L37.2001 19.2007L44.0437 18.1585C43.3334 20.5571 41.8961 22.7002 39.9157 24.3137C37.9353 25.9271 35.5019 26.9375 32.9269 27.2156ZM44.413 16.9057L38.561 17.7842L46.5137 9.27152L44.413 16.9057Z" fill="#708571"/>
<path d="M2.04466 0.735819C2.05317 0.660267 2.07207 0.586463 2.1007 0.516974L2.10495 0.445807C2.14418 0.362122 2.19726 0.287207 2.2614 0.22501C2.32362 0.160146 2.3974 0.110456 2.47787 0.0792108L2.54212 0.0830408C2.6085 0.0635748 2.67643 0.0516718 2.74484 0.047515L2.78767 0.0500681C2.85698 0.0430178 2.92672 0.0471751 2.9947 0.0624088L15.5093 5.37114C18.5034 6.65317 21.0661 8.91215 22.8611 11.8515C24.656 14.7908 25.5993 18.2731 25.5669 21.8411L25.4871 28.3433C25.4934 28.4199 25.4888 28.4972 25.4734 28.5726C25.4795 28.5987 25.4779 28.6264 25.4687 28.6516C25.431 28.7546 25.3714 28.8464 25.2952 28.919C25.2251 28.9862 25.1442 29.038 25.0568 29.0714C24.9686 29.1068 24.8751 29.1228 24.7818 29.1185L24.7389 29.116L18.9124 28.4275C15.7125 28.034 12.7064 26.578 10.2884 24.2504C7.87032 21.9228 6.15314 18.8321 5.36196 15.3836L2.10763 1.00144C2.10121 0.924829 2.10583 0.847432 2.12131 0.772129L2.04466 0.735819ZM14.9842 6.84753L5.20054 2.71729L16.7439 17.1016L16.2923 7.49684C15.8667 7.25594 15.4301 7.03923 14.9842 6.84753ZM17.7548 8.44103L18.2707 19.0098L24.0845 26.2758L24.1421 21.8276C24.1618 19.1732 23.5892 16.5626 22.475 14.2273C21.3607 11.892 19.7394 9.90447 17.7548 8.44103ZM19.0344 26.8636L22.9909 27.3136L14.3973 16.5649L6.76773 15.2373C7.52013 18.3204 9.08933 21.0736 11.2746 23.1448C13.4598 25.2159 16.1616 26.5107 19.0344 26.8636ZM6.37662 13.6269L12.901 14.7459L4.16078 3.81386L6.37662 13.6269Z" fill="#708571"/>
</svg>
