<svg width="126" height="60" viewBox="0 0 126 60" fill="none" xmlns="http://www.w3.org/2000/svg">
<path d="M7.224 32.6094C10.2667 32.6094 12.7027 33.3001 14.532 34.6814C16.38 36.0441 17.304 38.5548 17.304 42.2134C17.304 45.8161 16.408 48.3548 14.616 49.8294C12.824 51.2854 10.5 52.0134 7.644 52.0134H1.82V32.6094H7.224ZM6.412 35.9414V48.6814H7.924C9.436 48.6814 10.584 48.2148 11.368 47.2814C12.152 46.3294 12.544 44.6401 12.544 42.2134C12.544 40.5521 12.348 39.2641 11.956 38.3494C11.564 37.4348 11.032 36.8094 10.36 36.4734C9.688 36.1188 8.85733 35.9414 7.868 35.9414H6.412ZM31.5168 47.7014C31.5168 48.2614 31.5915 48.6721 31.7408 48.9334C31.9088 49.1948 32.1702 49.3908 32.5248 49.5214L31.6008 52.4054C30.6862 52.3308 29.9395 52.1348 29.3608 51.8174C28.7822 51.4814 28.3342 50.9588 28.0168 50.2494C27.0462 51.7428 25.5528 52.4894 23.5368 52.4894C22.0622 52.4894 20.8862 52.0601 20.0088 51.2014C19.1315 50.3428 18.6928 49.2228 18.6928 47.8414C18.6928 46.2174 19.2902 44.9761 20.4848 44.1174C21.6795 43.2588 23.4062 42.8294 25.6648 42.8294H27.1768V42.1854C27.1768 41.3081 26.9902 40.7108 26.6168 40.3934C26.2435 40.0574 25.5902 39.8894 24.6568 39.8894C24.1715 39.8894 23.5835 39.9641 22.8928 40.1134C22.2022 40.2441 21.4928 40.4308 20.7648 40.6734L19.7568 37.7614C20.6902 37.4068 21.6422 37.1361 22.6128 36.9494C23.6022 36.7628 24.5168 36.6694 25.3568 36.6694C27.4848 36.6694 29.0435 37.1081 30.0328 37.9854C31.0222 38.8628 31.5168 40.1788 31.5168 41.9334V47.7014ZM24.8248 49.3254C25.8328 49.3254 26.6168 48.8494 27.1768 47.8974V45.2654H26.0848C25.0768 45.2654 24.3208 45.4428 23.8168 45.7974C23.3315 46.1521 23.0888 46.7028 23.0888 47.4494C23.0888 48.0468 23.2382 48.5134 23.5368 48.8494C23.8542 49.1668 24.2835 49.3254 24.8248 49.3254ZM39.4647 37.1454V52.0134H35.0407V37.1454H39.4647ZM37.2247 29.3054C37.99 29.3054 38.6154 29.5481 39.1007 30.0334C39.6047 30.5001 39.8567 31.0974 39.8567 31.8254C39.8567 32.5534 39.6047 33.1601 39.1007 33.6454C38.6154 34.1121 37.99 34.3454 37.2247 34.3454C36.4594 34.3454 35.834 34.1121 35.3487 33.6454C34.8634 33.1601 34.6207 32.5534 34.6207 31.8254C34.6207 31.0974 34.8634 30.5001 35.3487 30.0334C35.834 29.5481 36.4594 29.3054 37.2247 29.3054ZM46.891 52.4894C45.603 52.4894 44.595 52.1254 43.867 51.3974C43.1577 50.6508 42.803 49.5961 42.803 48.2334V31.2374L47.227 30.7614V48.0654C47.227 48.6814 47.479 48.9894 47.983 48.9894C48.2444 48.9894 48.487 48.9428 48.711 48.8494L49.579 51.9854C48.7764 52.3214 47.8804 52.4894 46.891 52.4894ZM59.1861 52.0414C58.5888 53.9641 57.6088 55.4388 56.2461 56.4654C54.9021 57.5108 53.0914 58.0988 50.8141 58.2294L50.3381 55.1214C51.7568 54.9348 52.8021 54.6174 53.4741 54.1694C54.1648 53.7214 54.7154 53.0028 55.1261 52.0134H53.6141L49.0781 37.1454H53.7821L56.4421 49.1854L59.3541 37.1454H63.9181L59.1861 52.0414ZM65.5583 52.0134V32.6094H77.1223L76.6463 35.8854H70.1503V41.0374H75.8063V44.3134H70.1503V52.0134H65.5583ZM84.5744 36.6694C86.8518 36.6694 88.6344 37.3694 89.9224 38.7694C91.2104 40.1508 91.8544 42.0921 91.8544 44.5934C91.8544 46.1801 91.5558 47.5708 90.9584 48.7654C90.3798 49.9414 89.5398 50.8561 88.4384 51.5094C87.3558 52.1628 86.0678 52.4894 84.5744 52.4894C82.3158 52.4894 80.5331 51.7988 79.2264 50.4174C77.9384 49.0174 77.2944 47.0668 77.2944 44.5654C77.2944 42.9788 77.5838 41.5974 78.1624 40.4214C78.7598 39.2268 79.5998 38.3028 80.6824 37.6494C81.7838 36.9961 83.0811 36.6694 84.5744 36.6694ZM84.5744 39.9174C83.6784 39.9174 83.0064 40.3001 82.5584 41.0654C82.1104 41.8121 81.8864 42.9788 81.8864 44.5654C81.8864 46.1894 82.1011 47.3748 82.5304 48.1214C82.9784 48.8681 83.6598 49.2414 84.5744 49.2414C85.4704 49.2414 86.1424 48.8681 86.5904 48.1214C87.0384 47.3561 87.2624 46.1801 87.2624 44.5934C87.2624 42.9694 87.0384 41.7841 86.5904 41.0374C86.1611 40.2908 85.4891 39.9174 84.5744 39.9174ZM100.926 36.6694C103.203 36.6694 104.986 37.3694 106.274 38.7694C107.562 40.1508 108.206 42.0921 108.206 44.5934C108.206 46.1801 107.907 47.5708 107.31 48.7654C106.731 49.9414 105.891 50.8561 104.79 51.5094C103.707 52.1628 102.419 52.4894 100.926 52.4894C98.6673 52.4894 96.8847 51.7988 95.578 50.4174C94.29 49.0174 93.646 47.0668 93.646 44.5654C93.646 42.9788 93.9353 41.5974 94.514 40.4214C95.1113 39.2268 95.9513 38.3028 97.034 37.6494C98.1353 36.9961 99.4327 36.6694 100.926 36.6694ZM100.926 39.9174C100.03 39.9174 99.358 40.3001 98.91 41.0654C98.462 41.8121 98.238 42.9788 98.238 44.5654C98.238 46.1894 98.4527 47.3748 98.882 48.1214C99.33 48.8681 100.011 49.2414 100.926 49.2414C101.822 49.2414 102.494 48.8681 102.942 48.1214C103.39 47.3561 103.614 46.1801 103.614 44.5934C103.614 42.9694 103.39 41.7841 102.942 41.0374C102.513 40.2908 101.841 39.9174 100.926 39.9174ZM124.166 31.2374V52.0134H120.246L120.022 50.2774C118.976 51.7521 117.567 52.4894 115.794 52.4894C113.946 52.4894 112.536 51.7801 111.566 50.3614C110.614 48.9428 110.138 47.0014 110.138 44.5374C110.138 43.0254 110.39 41.6721 110.894 40.4774C111.398 39.2828 112.107 38.3494 113.022 37.6774C113.955 37.0054 115.019 36.6694 116.214 36.6694C117.632 36.6694 118.808 37.1361 119.742 38.0694V30.7614L124.166 31.2374ZM117.166 49.2414C118.192 49.2414 119.051 48.6814 119.742 47.5614V41.1494C119.387 40.7201 119.023 40.4028 118.65 40.1974C118.295 39.9921 117.884 39.8894 117.418 39.8894C116.596 39.8894 115.943 40.2721 115.458 41.0374C114.972 41.8028 114.73 42.9788 114.73 44.5654C114.73 46.3014 114.935 47.5148 115.346 48.2054C115.775 48.8961 116.382 49.2414 117.166 49.2414Z" fill="white"/>
<path d="M81.4443 6.87511C81.4376 6.81637 81.4216 6.759 81.3968 6.705L81.3938 6.64966C81.3597 6.58463 81.3131 6.52644 81.2565 6.47815C81.2016 6.42778 81.1362 6.38924 81.0645 6.36504L81.007 6.3681C80.9478 6.35305 80.8872 6.34388 80.826 6.34073L80.7876 6.34277C80.7257 6.33738 80.6632 6.3407 80.6022 6.35263L69.3394 10.497C66.6446 11.4978 64.3241 13.2578 62.6826 15.5459C61.041 17.8341 60.1552 20.5433 60.1413 23.3181L60.1347 28.3745C60.1281 28.4341 60.1474 28.6143 60.1474 28.6143C60.1799 28.6943 60.2322 28.7656 60.2996 28.822C60.3614 28.8742 60.4332 28.9143 60.511 28.9402C60.5896 28.9677 60.673 28.98 60.7566 28.9765L60.795 28.9745L66.0173 28.4316C68.8856 28.1216 71.5932 26.9855 73.785 25.1722C75.9768 23.359 77.5505 20.9533 78.2999 18.2705L81.3848 7.08176C81.3914 7.02217 81.3882 6.96199 81.3753 6.90345L81.4443 6.87511ZM69.7916 11.6445L78.5964 8.42007L68.0938 19.621L68.6131 12.1511C68.9969 11.9632 69.3902 11.7941 69.7916 11.6445ZM67.293 12.8872L66.7046 21.1069L61.4147 26.7649L61.4166 23.3057C61.4307 21.2415 61.9745 19.2105 62.9996 17.3931C64.0248 15.5756 65.4995 14.0278 67.293 12.8872ZM65.9269 27.2156L62.3809 27.5706L70.2001 19.2007L77.0437 18.1585C76.3334 20.5571 74.8961 22.7002 72.9157 24.3137C70.9353 25.9271 68.5019 26.9375 65.9269 27.2156ZM77.413 16.9057L71.561 17.7842L79.5137 9.27152L77.413 16.9057Z" fill="white"/>
<path d="M35.0447 0.735819C35.0532 0.660267 35.0721 0.586463 35.1007 0.516974L35.1049 0.445807C35.1442 0.362122 35.1973 0.287207 35.2614 0.22501C35.3236 0.160146 35.3974 0.110456 35.4779 0.0792108L35.5421 0.0830408C35.6085 0.0635748 35.6764 0.0516718 35.7448 0.047515L35.7877 0.0500681C35.857 0.0430178 35.9267 0.0471751 35.9947 0.0624088L48.5093 5.37114C51.5034 6.65317 54.0661 8.91215 55.8611 11.8515C57.656 14.7908 58.5993 18.2731 58.5669 21.8411L58.4871 28.3433C58.4934 28.4199 58.4888 28.4972 58.4734 28.5726C58.4795 28.5987 58.4779 28.6264 58.4687 28.6516C58.431 28.7546 58.3714 28.8464 58.2952 28.919C58.2251 28.9862 58.1442 29.038 58.0568 29.0714C57.9686 29.1068 57.8751 29.1228 57.7818 29.1185L57.7389 29.116L51.9124 28.4275C48.7125 28.034 45.7064 26.578 43.2884 24.2504C40.8703 21.9228 39.1531 18.8321 38.362 15.3836L35.1076 1.00144C35.1012 0.924829 35.1058 0.847432 35.1213 0.772129L35.0447 0.735819ZM47.9842 6.84753L38.2005 2.71729L49.7439 17.1016L49.2923 7.49684C48.8667 7.25594 48.4301 7.03923 47.9842 6.84753ZM50.7548 8.44103L51.2707 19.0098L57.0845 26.2758L57.1421 21.8276C57.1618 19.1732 56.5892 16.5626 55.475 14.2273C54.3607 11.892 52.7394 9.90447 50.7548 8.44103ZM52.0344 26.8636L55.9909 27.3136L47.3973 16.5649L39.7677 15.2373C40.5201 18.3204 42.0893 21.0736 44.2746 23.1448C46.4598 25.2159 49.1616 26.5107 52.0344 26.8636ZM39.3766 13.6269L45.901 14.7459L37.1608 3.81386L39.3766 13.6269Z" fill="white"/>
</svg>
